<svg width="150" height="30" viewBox="0 0 150 30" fill="none" xmlns="http://www.w3.org/2000/svg">
<g clip-path="url(#clip0_60_2)">
<path d="M24.4472 19.2353C24.0747 19.9235 23.5905 20.5235 23.0193 21C22.4234 21.4941 21.7529 21.9 21.0079 22.2C20.2505 22.5176 19.4311 22.7471 18.5743 22.8882C17.7176 23.0294 16.7988 23.1 15.88 23.1C14.5142 23.1 13.223 22.9412 12.0558 22.6235C10.9011 22.3235 9.89543 21.8294 9.06354 21.1588C8.24407 20.5059 7.61085 19.6765 7.15145 18.6529C6.89071 18.0882 6.70446 17.4353 6.59272 16.6941L6.04641 16.2529L5.51251 15.8823L3.33968 14.1882L1.00543 16.0059L0.533618 16.3765L0.0742188 16.7471C0.223213 18.6529 0.645363 20.3471 1.30342 21.8294C2.16014 23.7176 3.32726 25.2882 4.79237 26.5059C6.23265 27.7059 7.94608 28.5882 9.85818 29.1529C11.7579 29.7176 13.8189 30 15.9669 30C17.519 30 19.0958 29.8059 20.6727 29.4353C22.262 29.0647 23.7643 28.4647 25.1301 27.6529C26.5083 26.8412 27.7499 25.8 28.8177 24.5471C29.9103 23.2765 30.7174 21.7235 31.2264 19.9588L31.4996 19.0059L24.5962 18.9529L24.4472 19.2353Z" fill="#960044"/>
<path d="M56.6794 17.5765C56.58 17.453 56.4683 17.3471 56.3566 17.2412C57.4368 16.853 58.3431 16.2353 59.0633 15.4236C60.1807 14.153 60.7519 12.353 60.7519 10.0589C60.7519 8.32946 60.4787 6.81181 59.9324 5.55887C59.3985 4.32358 58.6535 3.30005 57.7099 2.50593C56.7911 1.72946 55.6737 1.16475 54.4072 0.811814C53.1656 0.458872 51.7874 0.300049 50.3223 0.300049H36.2051V29.6471H42.6615V19.3942H48.1246C48.7206 19.3942 49.2048 19.4295 49.5649 19.5177C49.9126 19.5883 50.1857 19.7118 50.4092 19.853C50.6079 19.9942 50.7569 20.153 50.881 20.3471C51.0176 20.5942 51.1666 20.8765 51.2907 21.2295L54.5935 29.6471H61.7079L57.9707 19.8706C57.623 18.9353 57.1884 18.1765 56.6794 17.5765ZM53.0663 12.5648C52.0978 13.1648 50.732 13.4824 48.9938 13.4824H42.6739V7.20005H49.6642C51.2038 7.20005 52.4082 7.42946 53.2401 7.88828C53.9354 8.27652 54.2706 8.94711 54.2831 10.0059C54.3079 11.2059 53.9106 12.0177 53.0663 12.5648Z" fill="#960044"/>
<path d="M74.795 0.353027L64.3281 29.6471H71.3184L73.4292 23.4354H84.9887L87.0994 29.6471H94.0401L83.9457 0.353027H74.795ZM75.155 17.8766L79.1655 6.12362L83.1262 17.8766H75.155Z" fill="#960044"/>
<path d="M119.518 0.300049H97.7402V29.6471H104.197V18.5118H117.606L118.823 15.3706L117.606 12.2295H104.197V7.20005H119.518H119.531L120.859 3.75887L119.518 0.300049Z" fill="#960044"/>
<path d="M150 3.81188L148.634 0.282471V0.300118H123.441V7.32365H132.828V29.6472H139.247V7.32365H148.634V7.34129L150 3.81188Z" fill="#960044"/>
<path d="M31.6116 12.0176L31.4626 11.1706C31.1274 9.26471 30.4693 7.58824 29.5009 6.15882C28.5448 4.76471 27.3529 3.6 25.9623 2.68235C24.5841 1.78235 23.032 1.09412 21.331 0.652941C19.63 0.229412 17.8297 0 15.9672 0C13.8192 0 11.7705 0.264706 9.87087 0.776471C7.94636 1.30588 6.24534 2.17059 4.79265 3.35294C3.32754 4.55294 2.148 6.12353 1.29128 8.02941C0.434567 9.95294 0 12.3 0 15C0 15.0706 0 15.1412 0 15.2118L0.496648 14.8235L0.993295 14.4353L3.35237 12.5824L5.51279 14.2765L5.99702 14.6471L6.48125 15.0176C6.48125 15 6.48125 15 6.48125 14.9824C6.48125 13.4824 6.70474 12.2118 7.16414 11.1882C7.62354 10.1647 8.26918 9.31765 9.07624 8.7C9.90812 8.04706 10.9138 7.58824 12.0685 7.30588C13.2481 7.02353 14.5394 6.88235 15.9051 6.88235C16.9729 6.88235 18.0035 6.97059 18.9719 7.14706C19.928 7.32353 20.7971 7.60588 21.5669 7.99412C22.3243 8.38235 22.9948 8.89412 23.5535 9.49412C24.0998 10.0941 24.522 10.8176 24.82 11.6471L24.9565 12.0353H24.9814L28.2841 14.6471L31.6116 12.0176Z" fill="#960044"/>
</g>
<defs>
<clipPath id="clip0_60_2">
<rect width="150" height="30" fill="white"/>
</clipPath>
</defs>
</svg>
